<svg width="24" height="24" viewBox="0 0 24 24" fill="none" xmlns="http://www.w3.org/2000/svg">
  <!-- Outer Calendar -->
  <path d="M7 2v2H5a2 2 0 0 0-2 2v1h18V6a2 2 0 0 0-2-2h-2V2h-2v2H9V2H7zm13 6H4v12a2 2 0 0 0 2 2h12a2 2 0 0 0 2-2V8z" fill="white"/>

  <!-- Dots for Dates -->
  <circle cx="7" cy="12" r="1.2" fill="rgba(1, 43, 74, 0.5)"/>
  <circle cx="12" cy="12" r="1.2" fill="rgba(1, 43, 74, 0.5)"/>
  <circle cx="17" cy="12" r="1.2" fill="rgba(1, 43, 74, 0.5)"/>
  
  <circle cx="7" cy="16" r="1.2" fill="rgba(1, 43, 74, 0.5)"/>
  <circle cx="12" cy="16" r="1.2" fill="rgba(1, 43, 74, 0.5)"/>
  <circle cx="17" cy="16" r="1.2" fill="rgba(1, 43, 74, 0.5)"/>
</svg>