<svg width="24" height="24" viewBox="0 0 24 24" xmlns="http://www.w3.org/2000/svg">
  <path fill="white" d="M22.46 6c-.77.35-1.6.58-2.46.69a4.27 4.27 0 0 0 1.88-2.36 8.6 8.6 0 0 1-2.72 1.05 4.26 4.26 0 0 0-7.27 3.88c0 .33.04.65.11.96A12.08 12.08 0 0 1 3.16 4.9a4.26 4.26 0 0 0 1.32 5.68 4.2 4.2 0 0 1-1.93-.53v.05a4.26 4.26 0 0 0 3.42 4.17 4.3 4.3 0 0 1-1.92.07 4.27 4.27 0 0 0 3.98 2.96A8.55 8.55 0 0 1 2 19.54a12.1 12.1 0 0 0 6.53 1.91c7.84 0 12.13-6.5 12.13-12.13 0-.19 0-.39-.01-.58A8.66 8.66 0 0 0 22.46 6z"/>
</svg>